<?xml version="1.0" encoding="utf-8"?>
<svg xmlns="http://www.w3.org/2000/svg" height="48" width="48" viewBox="0 0 48 48">
  <g>
    <path id="path1" transform="rotate(0,24,24) translate(12.5709689855576,11) scale(0.8125,0.8125)  " fill="#5F5A5A" d="M21.663003,22.553986C20.312999,22.553986 19.219007,23.647995 19.219007,24.997986 19.219007,26.348999 20.312999,27.441986 21.663003,27.441986 23.012979,27.441986 24.105994,26.348999 24.105994,24.997986 24.105994,23.647995 23.012979,22.553986 21.663003,22.553986z M21.663003,21.128998C23.799995,21.128998 25.532996,22.860992 25.532996,24.997986 25.532996,25.799988 25.289985,26.544998 24.871986,27.161987L24.832984,27.217987 28.132999,30.810989 26.837987,32 23.523996,28.391998 23.508004,28.401993C22.958993,28.69899 22.331002,28.868988 21.663003,28.868988 19.525006,28.868988 17.792005,27.135986 17.792005,24.997986 17.792005,22.860992 19.525006,21.128998 21.663003,21.128998z M12.094012,16.884995L13.563006,18.353989 12.422015,19.494995 13.598986,20.858994 12.041004,25.528992 10.435994,20.912994 11.749989,19.477997 10.62499,18.353989z M18.288007,16.72699C20.543987,17.149994,22.456979,18.54599,23.57499,20.46199L23.693977,20.676987 23.499002,20.576996C22.883981,20.279999 22.193979,20.113998 21.466991,20.113998 18.880994,20.113998 16.776992,22.218994 16.776992,24.802994 16.776992,25.691986 17.025008,26.523987 17.456985,27.232986L17.572005,27.411987 0,27.411987 0,24.375992C-1.9955041E-07,20.603989,2.6840183,17.456985,6.2470033,16.743988L11.993,25.751999z M10.184987,3.6069946C9.4170134,3.6049957 8.4500038,3.8029938 8.3359902,4.7869873 8.3359902,4.7869873 8.3359902,6.6999969 7.8260119,6.9549866L7.6989977,8.7399902 7.1890189,8.2299957 7.3799975,10.653 8.3359902,10.716995C8.3359902,10.716995 8.5920021,15.625992 13.245989,14.669998 13.245989,14.669998 15.477005,13.968994 15.986984,10.716995L16.753005,10.653 16.943984,8.4849854 16.624984,8.548996C16.624984,8.548996,16.432998,6.6999969,16.241988,5.9349976L16.115005,4.0859985C16.115005,4.0859985 15.030992,3.1929932 13.436999,3.9589996 13.436999,3.9589996 11.588001,3.8939972 11.141987,3.7029877 11.141987,3.7029877 10.710012,3.6089935 10.184987,3.6069946z M12.366992,0C14.541002,0 16.051009,1.1529999 16.051009,1.1529999 18.856,3.3839874 17.32701,7.2099915 17.32701,7.2099915 17.964002,7.5929871 17.900983,7.9109955 17.900983,7.9109955 17.900983,12.056 16.753005,11.737 16.753005,11.737 16.115005,14.414993 13.628985,15.625992 13.628985,15.625992 8.7830116,16.837997 7.571007,11.800995 7.571007,11.800995 6.5510189,11.672989 6.4240048,9.3139954 6.4240048,9.3139954 6.1039979,7.719986 6.9980094,7.0829926 6.9980094,7.0829926 5.0840098,2.6199951 8.5269997,1.2809906 8.5269997,1.2809906 9.9080107,0.31698608 11.228016,0 12.366992,0z" />
  </g>
</svg>

