<?xml version="1.0" encoding="utf-8"?>
<svg xmlns="http://www.w3.org/2000/svg" height="48" width="48" viewBox="0 0 48 48">
  <g>
    <path id="path1" transform="rotate(0,24,24) translate(14,15.6353160142899) scale(0.625,0.625)  " fill="#120A0A" d="M3.7579801,8.2645212C3.8770003,8.2675425,4.008991,8.3575398,4.1310022,8.5415303L10.969089,15.66155C11.039097,15.766561 11.080113,15.870566 11.095098,15.970572 11.189093,16.595575 10.2911,16.495569 9.6970961,16.282554L7.0620463,15.337544C6.8710339,15.270558 6.6670515,15.422566 6.713042,15.617544 7.39805,18.562561 9.4140722,21.126566 12.387109,22.354566 15.123174,23.476579 18.076223,23.217577 20.520259,21.913585 20.792266,21.768566 20.950259,21.483593 21.041263,21.188577 21.383249,20.086584 22.408288,19.286564 23.622297,19.286564 25.114324,19.286564 26.324334,20.495582 26.324334,21.988569 26.324334,23.480577 25.114324,24.690572 23.622297,24.690572 23.302285,24.690572 22.978275,24.736593 22.703277,24.899589 19.238227,26.943603 14.937166,27.415588 10.976108,25.785577 7.0550577,24.175586 4.3449943,20.868568 3.2949908,17.032558 3.2369759,16.815546 2.9829743,16.710565 2.8059695,16.846552L1.4449564,17.901579C0.94595579,18.287567 0.13292459,18.698579 0.011920457,18.07855 -0.0070616797,17.980558 -0.0040709114,17.866575 0.025928503,17.742551L3.4029944,8.6825224C3.4699812,8.4035298,3.6039858,8.2615305,3.7579801,8.2645212z M16.18917,0.00051612503C17.805223,0.015500086 19.441234,0.33050362 21.02225,0.98150707 24.945316,2.5925049 27.656354,5.8985158 28.704375,9.7355353 28.763366,9.9515387 29.016391,10.056551 29.194373,9.9205328L30.55441,8.8665434C31.054418,8.4795185 31.867418,8.0675303 31.988422,8.6875273 32.007436,8.7865263 32.003438,8.8995339 31.973438,9.0235268L29.065374,18.085569C28.943393,18.58258,28.615384,18.644561,28.335382,18.223571L21.033267,11.104528C20.962253,11.000554 20.921266,10.895543 20.905244,10.794529 20.810243,10.170534 21.709274,10.272524 22.304284,10.485537L24.93732,11.429541C25.127324,11.497534 25.331308,11.346532 25.285316,11.149542 24.602323,8.2035166 22.584287,5.6405197 19.611249,4.4115115 16.861207,3.2865075 13.890153,3.5535067 11.43812,4.8765093 11.171118,5.0205222 10.999118,5.2865144 10.891114,5.571519 10.505092,6.5925185 9.5200922,7.3205181 8.3640682,7.3205181 6.8710339,7.3205181 5.6610243,6.1105224 5.6610243,4.6185128 5.6610243,3.1255268 6.8710339,1.9155005 8.3640682,1.9155004 8.4540655,1.9155005 8.5430567,1.9215125 8.6300633,1.9305151 8.9210837,1.9605141 9.2170784,1.908512 9.4720871,1.7635224 11.511119,0.60150064 13.82814,-0.02051078 16.18917,0.00051612503z" />
  </g>
</svg>

