<?xml version="1.0" encoding="utf-8"?>
<svg xmlns="http://www.w3.org/2000/svg" height="32" width="32" viewBox="0 0 32 32">
  <g>
    <path id="path1" transform="rotate(0,16,16) translate(8,8.02499961853027) scale(0.5,0.5)  " fill="#100D0D" d="M25.420044,24.622992L25.420044,27.513983 29.80603,27.513983 29.80603,24.622992z M19.538025,24.622992L19.538025,27.513983 23.924011,27.513983 23.924011,24.622992z M13.757019,24.622992L13.757019,27.513983 18.143005,27.513983 18.143005,24.622992z M7.9750366,24.622992L7.9750366,27.513983 12.361023,27.513983 12.361023,24.622992z M2.1929932,24.622992L2.1929932,27.513983 6.5790405,27.513983 6.5790405,24.622992z M25.420044,20.336003L25.420044,23.226996 29.80603,23.226996 29.80603,20.336003z M19.538025,20.336003L19.538025,23.226996 23.924011,23.226996 23.924011,20.336003z M13.757019,20.336003L13.757019,23.226996 18.143005,23.226996 18.143005,20.336003z M7.9750366,20.336003L7.9750366,23.226996 12.361023,23.226996 12.361023,20.336003z M2.1929932,20.336003L2.1929932,23.226996 6.5790405,23.226996 6.5790405,20.336003z M25.420044,15.949985L25.420044,18.840977 29.80603,18.840977 29.80603,15.949985z M19.538025,15.949985L19.538025,18.840977 23.924011,18.840977 23.924011,15.949985z M13.757019,15.949985L13.757019,18.840977 18.143005,18.840977 18.143005,15.949985z M7.9750366,15.949985L7.9750366,18.840977 12.361023,18.840977 12.361023,15.949985z M2.1929932,15.949985L2.1929932,18.840977 6.5790405,18.840977 6.5790405,15.949985z M0,11.563998L31.900024,11.563998 31.900024,29.009009C31.900024,30.603981,30.604004,31.900002,29.009033,31.900002L2.8910522,31.900002C1.2950439,31.900002,0,30.603981,0,29.009009z M23.825012,4.7849739C23.327026,5.1839917 23.028015,5.7819836 23.028015,6.4799817 23.028015,7.6759965 24.024048,8.6729758 25.221008,8.6729758 26.417053,8.6729758 27.414001,7.6759965 27.414001,6.4799817 27.414001,5.7819836 27.115051,5.1839917 26.616028,4.7849739L26.616028,5.7819836C26.616028,6.5789807 26.018005,7.1779802 25.221008,7.1779802 24.423035,7.0780046 23.825012,6.4799817 23.825012,5.7819836z M5.3829956,4.7849739C4.8840332,5.1839917 4.585022,5.7819836 4.585022,6.4799817 4.585022,7.6759965 5.5820313,8.6729758 6.7780151,8.6729758 7.9750366,8.6729758 8.9720459,7.6759965 8.9720459,6.4799817 8.9720459,5.7819836 8.6719971,5.1839917 8.1740112,4.7849739L8.1740112,5.7819836C8.1740112,6.5789807 7.5760498,7.1779802 6.7780151,7.1779802 5.9810181,7.1779802 5.3829956,6.5789807 5.3829956,5.7819836z M6.6790161,0C7.4760132,0.099975374,8.0740356,0.69799798,8.0740356,1.3959961L8.0740356,2.8909917 23.825012,2.8909917 23.825012,1.4949951C23.825012,0.69799798 24.423035,0.099975374 25.221008,0.099975583 26.018005,0.19897443 26.616028,0.79797357 26.616028,1.4949951L26.616028,2.9909978 29.109009,2.9909978C30.704041,2.9909978,32,4.286988,32,5.8819897L32,10.267977 0,10.267977 0,5.7819836C0,4.1869819,1.2950439,2.8909917,2.8910522,2.8909917L5.28302,2.8909917 5.28302,1.4949951C5.3829956,0.69799798,5.9810181,0.099975374,6.6790161,0z" />
  </g>
</svg>

