<?xml version="1.0" encoding="utf-8"?>
<svg xmlns="http://www.w3.org/2000/svg" height="32" width="32" viewBox="0 0 32 32">
  <g>
    <path id="path1" transform="rotate(0,16,16) translate(8.08725023269653,8) scale(0.5,0.5)  " fill="#4A4848" d="M26.072996,0L31.650999,0 31.650999,24.570007C31.650999,25.549988 31.491026,26.484985 31.170011,27.380005 30.84802,28.274994 30.33502,29.065002 29.632017,29.755005 28.928007,30.440002 28.034025,30.984985 26.949003,31.389984 25.864012,31.799988 24.571012,32 23.068998,32L8.6910095,32 8.6910095,7.6499939 14.163024,7.6499939 14.163024,27.035004 22.854002,27.035004C23.856016,27.035004 24.643003,26.75 25.214018,26.179993 25.786009,25.60498 26.072996,24.799988 26.072996,23.759979z M0,0L14.37802,0C15.880004,0 17.173004,0.20498657 18.258026,0.60998535 19.343016,1.0149841 20.236998,1.5599976 20.94,2.25 21.64401,2.9349976 22.157011,3.7250061 22.478025,4.6199951 22.800016,5.5149841 22.960997,6.4549866 22.960997,7.4299927L22.960997,24.320007 17.382019,24.320007 17.382019,8.2099915C17.382019,7.1499939 17.096008,6.3399963 16.52301,5.7749939 15.951018,5.2149963 15.164,4.9349976 14.163024,4.9349976L5.4720153,4.9349976 5.4720153,32 0,32z" />
  </g>
</svg>

