<?xml version="1.0" encoding="utf-8"?>
<svg xmlns="http://www.w3.org/2000/svg" height="32" width="32" viewBox="0 0 32 32">
  <g>
    <path id="path1" transform="rotate(0,16,16) translate(7,9.78360223698304) scale(0.562517200191241,0.562517200191241)  " fill="#0E0B0B" d="M25.107022,7.3299565L25.107022,10.039063 12.047022,10.072021 12.047022,12.031006 25.107022,12.063965 25.107022,14.773071 29.075042,11.052002z M23.107022,2.7130138L31.999022,11.052002 23.107022,19.390013 23.107022,14.057983 10.047022,14.025024 10.047022,8.0780034 23.107022,8.0450444z M0,0L20.082993,0 20.082993,5.0210164 18.082994,5.0210164 18.082994,2.0000067 1.999999,2.0000067 1.999999,20.102064 18.082994,20.102064 18.082994,17.081056 20.082993,17.081056 20.082993,22.102072 0,22.102072z" />
  </g>
</svg>

