<?xml version="1.0" encoding="utf-8"?>
<svg xmlns="http://www.w3.org/2000/svg" height="32" width="32" viewBox="0 0 32 32">
  <g>
    <path id="path1" transform="rotate(0,16,16) translate(8,8) scale(0.5,0.5)  " fill="#100D0D" d="M15.007996,7.4559937L16.992004,7.4559937 16.992004,15.584015 22.783997,21.312012 21.375992,22.752014 15.007996,16.416016z M14.975998,2.0480042C11.455994,2.3680115 8.5059967,3.7120056 6.128006,6.0800171 3.7489929,8.447998 2.3889923,11.393005 2.0480042,14.912018L2.0480042,15.007996 4,15.007996 4,16.992004 2.0480042,16.992004 2.0480042,17.088013C2.3889923,20.587006 3.7489929,23.524994 6.128006,25.904022 8.5059967,28.28302 11.455994,29.632019 14.975998,29.951996L15.007996,29.951996 15.007996,27.936005 16.992004,27.936005 16.992004,29.951996 17.024002,29.951996C20.543991,29.632019 23.492996,28.287994 25.871994,25.920013 28.25,23.552002 29.610992,20.608002 29.951996,17.088013L29.983994,16.992004 27.007996,16.992004 27.007996,15.007996 29.983994,15.007996 29.951996,14.912018C29.610992,11.414001 28.25,8.4760132 25.871994,6.0970154 23.492996,3.7180176 20.543991,2.3680115 17.024002,2.0480042L16.992004,2.0480042 16.992004,4.5440063 15.007996,4.5440063 15.007996,2.0480042z M16,0C20.522995,0.10699463 24.292999,1.6700134 27.311996,4.6880188 30.330002,7.7070007 31.893005,11.47702 32,16 31.893005,20.52301 30.330002,24.294006 27.311996,27.312012 24.292999,30.330994 20.522995,31.893005 16,32 11.477005,31.893005 7.7059937,30.330994 4.6880035,27.312012 1.6689911,24.294006 0.10699463,20.52301 0,16 0.10699463,11.47702 1.6689911,7.7070007 4.6880035,4.6880188 7.7059937,1.6700134 11.477005,0.10699463 16,0z" />
  </g>
</svg>

