<?xml version="1.0" encoding="utf-8"?>
<svg xmlns="http://www.w3.org/2000/svg" height="128" width="128" viewBox="0 0 128 128">
  <g>
    <path id="path1" transform="rotate(0,64,64) translate(36.2232102548244,30) scale(2.12759449814782,2.12759449814782)  " fill="#8F3636" d="M25.060475,15.726208C25.126702,15.722902 25.194203,15.726215 25.262204,15.736715 25.808215,15.820716 26.183223,16.330729 26.099221,16.876743L24.683194,26.112969C24.609193,26.601981,24.189185,26.961989,23.695174,26.961989L13.109973,26.961989C12.556962,26.961989 12.109954,26.513978 12.109954,25.961964 12.109954,25.409951 12.556962,24.961941 13.109973,24.961941L22.837159,24.961941 24.123183,16.573735C24.195809,16.096848,24.596894,15.749355,25.060475,15.726208z M19.979691,8.7335658C19.383424,8.7446845 18.915948,9.1620505 18.81442,9.8121531 18.468406,12.009156 18.107436,14.203137 17.745429,16.398095L17.526368,17.722088C17.361386,18.729099,16.942372,19.085083,15.926359,19.085083L11.783267,19.095093C10.80528,19.095093,9.8282089,19.090088,8.8522367,19.07309L8.8492451,19.07309C8.0062103,19.07309 7.595191,19.333097 7.2171922,20.065086 6.5051413,21.449076 5.7311382,22.821043 4.9821601,24.147051 4.6770997,24.688031 4.3721008,25.228035 4.0711303,25.770024L2.2880728,28.970007C2.1100905,29.293004 2.0050468,29.524996 2.000042,29.751008 2.0000417,29.759001 2.0010793,29.815978 2.2560899,29.938994 2.2560897,29.938994 2.2890494,29.951994 2.3030877,29.958006 2.317065,29.950987 2.3430664,29.934996 2.3820691,29.902007 2.4920564,29.807005 2.5941093,29.673005 2.6890824,29.541993L4.3191214,27.281027C5.5661564,25.551032 6.8131919,23.822041 8.0561991,22.089055 8.3602219,21.667061 8.7811899,21.452067 9.3092165,21.452067L10.787274,21.454051 14.391354,21.45106C15.62136,21.45106 16.852405,21.454051 18.08241,21.463053 19.007417,21.463053 19.413432,20.783066 19.486432,20.201071 19.658433,18.800082 19.901418,17.395095 20.13647,16.038112 20.230466,15.497101 20.324462,14.956121 20.413453,14.414134L20.677436,12.835137C20.845469,11.83716 21.013442,10.840159 21.172502,9.8401678 21.232501,9.4641643 20.774484,8.8461885 20.242429,8.7541785 20.152682,8.7386799 20.064874,8.7319775 19.979691,8.7335658z M18.94097,1.9611907C18.434979,1.9611907 17.956988,2.1641831 17.591994,2.53017 17.233001,2.8931565 17.036004,3.3641393 17.039002,3.8571215 17.044003,4.9250821 17.888989,5.7600514 18.96297,5.7600515L18.96297,6.7600146 18.966969,5.7600515C20.015952,5.7580515 20.843938,4.9150825 20.850938,3.8391218 20.853938,3.3571396 20.660941,2.8941565 20.304948,2.5361695 19.936954,2.1651831 19.452962,1.9611907 18.94097,1.9611907z M18.95147,1.2397766E-05C19.966952,0.002512455 20.981437,0.37974882 21.723924,1.1272211 22.45791,1.8651943 22.857903,2.8341587 22.850904,3.8531213 22.842591,5.129637 22.225453,6.2661999 21.280604,6.9798195L21.264419,6.9914497 21.293275,7.0037337C22.508771,7.5565521 23.347493,8.8971496 23.147519,10.155168 22.988519,11.159157 22.819509,12.163146 22.6505,13.166128L22.386518,14.741127C22.296489,15.287112 22.202493,15.833127 22.10752,16.379113 21.875459,17.713086 21.6365,19.093079 21.470483,20.445087 21.2925,21.898047 20.161433,23.463036 18.097425,23.463036 16.842395,23.454033 15.618369,23.451043 14.391354,23.451043L10.787274,23.454033 9.5392017,23.45205C8.3422155,25.120034,7.1421785,26.785029,5.9411645,28.449992L4.3111253,30.711997C4.1521254,30.931996 3.9541233,31.186968 3.6881268,31.41597 3.1671195,31.865979 2.6510563,31.960978 2.3101067,31.960978 1.9990652,31.960978 1.689061,31.885968 1.3860764,31.739974 0.25403341,31.193987 0.008056581,30.351985 0,29.742005 0.015014735,29.035986 0.26801076,28.49 0.54005014,28.000014L2.3231077,24.798047C2.6260924,24.25203 2.9331057,23.70806 3.2410958,23.164057 3.9801247,21.854072 4.7451553,20.50008 5.4391398,19.150085 6.1601634,17.752087 7.2561946,17.073107 8.7911997,17.073107 9.8522577,17.091113 10.817244,17.09511 11.783267,17.09511L15.604331,17.086108 15.771388,16.072109C16.132358,13.883132 16.494365,11.694156 16.83739,9.5021582 16.954377,8.7603567 17.286593,8.1197193 17.764968,7.6419316L17.819913,7.5897182 17.802228,7.584709C16.2112,7.0911902 15.047162,5.6116819 15.039038,3.8681211 15.033037,2.8391585 15.43603,1.8631945 16.173018,1.1212215 16.919505,0.36974907 17.935988,-0.0024871826 18.95147,1.2397766E-05z" />
  </g>
</svg>

