<?xml version="1.0" encoding="utf-8"?>
<svg xmlns="http://www.w3.org/2000/svg" height="32" width="32" viewBox="0 0 32 32">
  <g>
    <path id="path1" transform="rotate(0,16,16) translate(10,10) scale(0.375,0.375)  " fill="#201919" d="M6.5939941,2C4.0610352,2,2,4.0610046,2,6.5940094L2,25.406006C2,27.939011,4.0610352,30,6.5939941,30L25.406006,30C27.940002,30,30,27.939011,30,25.406006L30,6.5940094C30,4.0610046,27.940002,2,25.406006,2z M6.5939941,0L25.406006,0C29.041992,0,32,2.9580078,32,6.5940094L32,25.406006C32,29.042007,29.041992,32,25.406006,32L6.5939941,32C2.9580078,32,0,29.042007,0,25.406006L0,6.5940094C0,2.9580078,2.9580078,0,6.5939941,0z" />
  </g>
</svg>

