<?xml version="1.0" encoding="utf-8"?>
<svg xmlns="http://www.w3.org/2000/svg" height="48" width="48" viewBox="0 0 48 48">
  <g>
    <path id="path1" transform="rotate(0,24,24) translate(12,17.9471225738525) scale(0.75,0.75)  " fill="#5F5A5A" d="M15.879996,10.113017C13.015996,10.113017,10.620996,11.846014,10.072996,14.141009L21.686996,14.141009C21.138997,11.846014,18.743997,10.113017,15.879996,10.113017z M25.014999,9.3680315C23.987999,9.3680315 22.996999,9.6370325 22.168999,10.125033 22.937999,10.833035 23.553999,11.669037 23.973,12.577039L29.858,12.577039C29.325001,10.737035,27.356,9.3680315,25.014999,9.3680315z M6.9839983,9.3680315C4.6439991,9.3680315,2.6749992,10.737035,2.1419992,12.577039L7.7879982,12.577039C8.2239981,11.632037 8.8709979,10.767035 9.6829977,10.043034 8.8839979,9.6060324 7.947998,9.3680315 6.9839983,9.3680315z M25.015001,2.2980337C23.901001,2.2980333 22.994001,3.2190302 22.994001,4.3500266 22.994001,5.4810228 23.901001,6.4010196 25.015001,6.4010196 26.129001,6.4010196 27.036001,5.4810228 27.036001,4.3500266 27.036001,3.2190302 26.129001,2.2980333 25.015001,2.2980337z M6.9839973,2.2980337C5.8699975,2.2980333 4.9629974,3.2190302 4.9629974,4.3500266 4.9629974,5.4810228 5.8699975,6.4010196 6.9839973,6.4010196 8.0979977,6.4010196 9.0049975,5.4810228 9.0049973,4.3500266 9.0049975,3.2190302 8.0979977,2.2980333 6.9839973,2.2980337z M15.879995,1.9999924C14.522002,1.9999924 13.417998,3.121021 13.417998,4.4979692 13.417998,5.8749781 14.522002,6.996007 15.879995,6.996007 17.237997,6.996007 18.342,5.8749781 18.342,4.4979692 18.342,3.121021 17.237997,1.9999924 15.879995,1.9999924z M15.879995,0C18.339993,-3.8718645E-07 20.341999,2.0179978 20.341999,4.4979692 20.341999,6.1261315 19.479807,7.5544706 18.191797,8.3440638L18.103837,8.3950968 18.234103,8.4295387C18.83861,8.5966454,19.412279,8.8263502,19.945421,9.1100578L20.079164,9.1844196 20.096013,9.168746C20.790442,8.5561762,21.618791,8.0848093,22.520437,7.7782722L22.761075,7.702734 22.610778,7.5949593C21.629981,6.8554015 20.994,5.6758657 20.994,4.3500266 20.994,2.1150339 22.798001,0.2980401 25.015001,0.29803993 27.232001,0.2980401 29.036001,2.1150339 29.036001,4.3500266 29.036001,5.6758657 28.400021,6.8554015 27.419224,7.5949593L27.270109,7.7018862 27.414391,7.7453652C30.087769,8.6170445,32,10.902035,32,13.577041L32,14.577044 23.779284,14.577044 23.798166,14.847279C23.802706,14.944695,23.804997,15.042619,23.804997,15.141007L23.804997,16.141006 7.9549956,16.141006 7.9549956,15.141007C7.9549956,15.042619,7.9572875,14.944695,7.9618263,14.847278L7.9807093,14.577044 0,14.577044 0,13.577041C0,10.902035,1.9122314,8.6170445,4.5851316,7.7453652L4.7290363,7.701992 4.5797744,7.5949593C3.598978,6.8554015 2.9629974,5.6758657 2.9629974,4.3500266 2.9629974,2.1150339 4.7669973,0.2980401 6.9839973,0.29803993 9.2009976,0.2980401 11.004998,2.1150339 11.004998,4.3500266 11.004998,5.6758657 10.369017,6.8554015 9.3882203,7.5949593L9.243361,7.6988349 9.414917,7.7508168C10.290422,8.0384464,11.096006,8.4835453,11.790043,9.0703621L11.827369,9.1035471 12.084475,8.972744C12.539793,8.7515211,13.022134,8.5687943,13.52589,8.4295387L13.656156,8.3950968 13.568195,8.3440638C12.280188,7.5544706 11.417999,6.1261315 11.417999,4.4979692 11.417999,2.0179978 13.419997,-3.8718645E-07 15.879995,0z" />
  </g>
</svg>

