<?xml version="1.0" encoding="utf-8"?>
<svg xmlns="http://www.w3.org/2000/svg" height="48" width="48" viewBox="0 0 48 48">
  <g>
    <path id="path1" transform="rotate(0,24,24) translate(10,10) scale(0.875,0.875)  " fill="#787575" d="M15,8L17,8 17,27 15,27z M11,8L13,8 13,27 11,27z M7,8L9,8 9,27 7,27z M3.0799956,5L4.9969873,29.922974 19.000982,30 20.919989,5 16,5 14,5 10,5 8,5z M24.293028,3.7078881L24.236156,3.8334689C24.084126,4.19225 24,4.5865 24,5 24,6.654 25.346001,8 27,8 27.4135,8 27.807749,7.915875 28.166531,7.763844L28.292631,7.706737z M27,2C26.5865,2,26.192251,2.084125,25.833469,2.2361565L25.707304,2.2932925 29.706713,6.2926834 29.763844,6.1665316C29.915874,5.80775 30,5.4135001 30,5 30,3.346 28.653999,2 27,2z M13.773,1.9949999L10.2,2C10.16,2.025,10,2.241,10,2.5999999L10,3 14,3 14,2.5999999C14,2.241,13.84,2.025,13.773,1.9949999z M10.2,0L13.8,0C15.034,0,16,1.142,16,2.5999999L16,3 22.418741,3 22.493809,2.8342214C23.302345,1.1587373 25.018406,0 27,0 29.757,0 32,2.243 32,5 32,7.757 29.757,10 27,10 25.276875,10 23.754532,9.1238279 22.855087,7.7936034L22.726625,7.5934129 20.996984,30.077026C20.999975,31.103027,20.102972,32,18.999975,32L4.9999781,32C3.8969815,32,2.9999785,31.103027,2.9999781,30L1.0740652,5 0,5 0,3 0.91999245,3 8,3 8,2.5999999C8,1.142,8.9659996,0,10.2,0z" />
  </g>
</svg>

